<svg xmlns="http://www.w3.org/2000/svg" viewBox="0 -0.5 10 10" shape-rendering="crispEdges">
<metadata>Made with Pixels to Svg https://codepen.io/shshaw/pen/XbxvNj</metadata>
<path stroke="#ffffff" d="M0 0h10M0 1h1M9 1h1M0 2h1M5 2h1M9 2h1M0 3h1M5 3h2M9 3h1M0 4h1M3 4h1M5 4h1M9 4h1M0 5h1M2 5h1M4 5h3M9 5h1M0 6h1M5 6h3M9 6h1M0 7h1M3 7h1M5 7h1M9 7h1M0 8h1M9 8h1M0 9h10" />
<path stroke="#000000" d="M1 1h8M1 2h4M6 2h3M1 3h4M7 3h2M1 4h2M4 4h1M6 4h3M1 5h1M3 5h1M7 5h2M1 6h4M8 6h1M1 7h2M4 7h1M6 7h3M1 8h8" />
</svg>