<svg xmlns="http://www.w3.org/2000/svg" viewBox="0 -0.5 10 10" shape-rendering="crispEdges">
<metadata>Made with Pixels to Svg https://codepen.io/shshaw/pen/XbxvNj</metadata>
<path stroke="#ffffff" d="M0 0h10M0 1h1M9 1h1M0 2h1M3 2h2M6 2h1M9 2h1M0 3h1M6 3h2M9 3h1M0 4h1M2 4h1M4 4h3M9 4h1M0 5h1M2 5h2M5 5h2M9 5h1M0 6h1M2 6h2M7 6h1M9 6h1M0 7h1M4 7h2M9 7h1M0 8h1M9 8h1M0 9h10" />
<path stroke="#000000" d="M1 1h8M1 2h2M5 2h1M7 2h2M1 3h5M8 3h1M1 4h1M3 4h1M7 4h2M1 5h1M4 5h1M7 5h2M1 6h1M4 6h3M8 6h1M1 7h3M6 7h3M1 8h8" />
</svg>