<svg xmlns="http://www.w3.org/2000/svg" viewBox="0 -0.5 10 10" shape-rendering="crispEdges">
<metadata>Made with Pixels to Svg https://codepen.io/shshaw/pen/XbxvNj</metadata>
<path stroke="#ffffff" d="M0 0h10M0 1h1M9 1h1M0 2h1M3 2h2M7 2h1M9 2h1M0 3h1M4 3h2M9 3h1M0 4h1M3 4h1M7 4h1M9 4h1M0 5h1M2 5h6M9 5h1M0 6h1M2 6h1M4 6h1M7 6h1M9 6h1M0 7h1M2 7h1M5 7h1M7 7h1M9 7h1M0 8h1M9 8h1M0 9h10" />
<path stroke="#000000" d="M1 1h8M1 2h2M5 2h2M8 2h1M1 3h3M6 3h3M1 4h2M4 4h3M8 4h1M1 5h1M8 5h1M1 6h1M3 6h1M5 6h2M8 6h1M1 7h1M3 7h2M6 7h1M8 7h1M1 8h8" />
</svg>